HIERARCHY
ROOT SpineBase
{
  OFFSET 0.000000 0.000000 0.000000
  CHANNELS 6 Xposition Yposition Zposition Zrotation Xrotation Yrotation
  JOINT SpineMid
  {
    OFFSET -0.000000 28.499385 0.000000
    CHANNELS 3 Zrotation Xrotation Yrotation
    JOINT SpineShoulder
    {
      OFFSET -0.012472 21.372876 -0.541641
      CHANNELS 3 Zrotation Xrotation Yrotation
      JOINT Neck
      {
        OFFSET -0.022445 7.131653 -0.415249
        CHANNELS 3 Zrotation Xrotation Yrotation
        JOINT Head
        {
          OFFSET 6.206451 11.485171 -2.455785
          CHANNELS 3 Zrotation Xrotation Yrotation
          End Site
          {
            OFFSET 0 0 0
          }
        }
      }
      JOINT ShoulderLeft
      {
        OFFSET -12.110146 -1.962414 -9.522491
        CHANNELS 3 Zrotation Xrotation Yrotation
        JOINT ElbowLeft
        {
          OFFSET -4.469157 -22.719962 -6.417012
          CHANNELS 3 Zrotation Xrotation Yrotation
          JOINT WristLeft
          {
            OFFSET 4.403944 -21.470347 -4.090142
            CHANNELS 3 Zrotation Xrotation Yrotation
            JOINT HandLeft
            {
              OFFSET 1.449917 -6.211851 -0.182646
              CHANNELS 3 Zrotation Xrotation Yrotation
              JOINT HandTipLeft
              {
                OFFSET 2.003907 -5.779142 0.356937
                CHANNELS 3 Zrotation Xrotation Yrotation
                End Site
                {
                  OFFSET 0 0 0
                }
              }
              JOINT ThumbLeft
              {
                OFFSET -1.925983 -1.093405 -2.367221
                CHANNELS 3 Zrotation Xrotation Yrotation
                End Site
                {
                  OFFSET 0 0 0
                }
              }
            }
          }
        }
      }
      JOINT ShoulderRight
      {
        OFFSET 14.174786 -7.901285 11.995664
        CHANNELS 3 Zrotation Xrotation Yrotation
        JOINT ElbowRight
        {
          OFFSET 0.820218 -23.299773 2.963632
          CHANNELS 3 Zrotation Xrotation Yrotation
          JOINT WristRight
          {
            OFFSET -0.055253 -20.861856 -5.358860
            CHANNELS 3 Zrotation Xrotation Yrotation
            JOINT HandRight
            {
              OFFSET 0.286922 -2.779869 -1.373464
              CHANNELS 3 Zrotation Xrotation Yrotation
              JOINT HandTipRight
              {
                OFFSET 1.147131 -3.476659 -1.436679
                CHANNELS 3 Zrotation Xrotation Yrotation
                End Site
                {
                  OFFSET 0 0 0
                }
              }
              JOINT ThumbRight
              {
                OFFSET -2.976105 0.206380 -1.427710
                CHANNELS 3 Zrotation Xrotation Yrotation
                End Site
                {
                  OFFSET 0 0 0
                }
              }
            }
          }
        }
      }
    }
  }
  JOINT HipLeft
  {
    OFFSET -5.151954 1.626619 -6.957279
    CHANNELS 3 Zrotation Xrotation Yrotation
    JOINT KneeLeft
    {
      OFFSET -7.552553 -28.190815 -1.275159
      CHANNELS 3 Zrotation Xrotation Yrotation
      JOINT AnkleLeft
      {
        OFFSET -7.253230 -33.953430 6.448399
        CHANNELS 3 Zrotation Xrotation Yrotation
        JOINT FootLeft
        {
          OFFSET 4.540320 -5.349647 -5.504118
          CHANNELS 3 Zrotation Xrotation Yrotation
          End Site
          {
            OFFSET 0 0 0
          }
        }
      }
    }
  }
  JOINT HipRight
  {
    OFFSET 4.641470 0.158723 2.338119
    CHANNELS 3 Zrotation Xrotation Yrotation
    JOINT KneeRight
    {
      OFFSET -1.684326 -28.350873 -0.056480
      CHANNELS 3 Zrotation Xrotation Yrotation
      JOINT AnkleRight
      {
        OFFSET -10.681434 -33.323693 6.495585
        CHANNELS 3 Zrotation Xrotation Yrotation
        JOINT FootRight
        {
          OFFSET 5.471060 -3.440803 -9.309181
          CHANNELS 3 Zrotation Xrotation Yrotation
          End Site
          {
            OFFSET 0 0 0
          }
        }
      }
    }
  }
}
MOTION
Frames: 9
Frame Time: 0.033333
35.641712 81.448850 331.182189 0.000000 0.000000 -43.505496 -0.000000 0.000000 43.505496 -0.000000 0.000000 0.000000 -0.000000 0.000000 0.000000 0.000000 0.000000 0.000000 -0.000000 0.000000 0.000000 -0.000000 0.000000 0.000000 -0.000000 0.000000 0.000000 -0.000000 0.000000 0.000000 0.000000 0.000000 0.000000 0.000000 0.000000 0.000000 -0.000000 0.000000 0.000000 -0.000000 0.000000 0.000000 -0.000000 0.000000 0.000000 -0.000000 0.000000 0.000000 0.000000 0.000000 0.000000 0.000000 0.000000 0.000000 -0.000000 0.000000 43.505496 -0.000000 0.000000 0.000000 -0.000000 0.000000 0.000000 0.000000 0.000000 0.000000 -0.000000 0.000000 43.505496 -0.000000 0.000000 0.000000 -0.000000 0.000000 0.000000 0.000000 0.000000 0.000000
35.626974 81.427939 331.166422 -0.029430 0.047823 -43.906191 0.054367 -0.014046 43.906210 -0.000000 0.000000 0.000000 -0.000000 0.000000 0.000000 0.000000 0.000000 0.000000 -0.000000 0.000000 0.000000 -0.000000 0.000000 0.000000 -0.000000 0.000000 0.000000 -2.098959 -0.455582 -0.297789 0.000000 0.000000 0.000000 0.000000 0.000000 0.000000 -0.000000 0.000000 0.000000 -0.000000 0.000000 0.000000 1.199065 -5.299407 -1.108435 -4.427790 0.048750 0.995843 0.000000 0.000000 0.000000 0.000000 0.000000 0.000000 0.054367 -0.014046 43.906210 -0.000000 0.000000 0.000000 -6.336570 -12.569109 -5.810006 0.000000 0.000000 0.000000 0.054367 -0.014046 43.906210 -0.000000 0.000000 0.000000 -0.000000 0.000000 0.000000 0.000000 0.000000 0.000000
35.608759 81.406664 331.138026 -0.067219 0.100328 -44.223249 0.118145 -0.025016 44.223334 -0.000000 0.000000 0.000000 -0.000000 0.000000 0.000000 0.000000 0.000000 0.000000 -0.000000 0.000000 0.000000 -0.000000 0.000000 0.000000 0.565903 1.071474 0.227845 -4.462534 -1.880115 -0.872864 0.000000 0.000000 0.000000 0.000000 0.000000 0.000000 -0.000000 0.000000 0.000000 -0.000000 0.000000 0.000000 2.083220 -8.985839 -1.863742 -7.732767 -0.077823 2.065744 0.000000 0.000000 0.000000 0.000000 0.000000 0.000000 0.118145 -0.025016 44.223334 -0.000000 0.000000 0.000000 -13.523479 -23.117400 -12.563496 0.000000 0.000000 0.000000 0.118145 -0.025016 44.223334 -0.000000 0.000000 0.000000 -0.000000 0.000000 0.000000 0.000000 0.000000 0.000000
35.587067 81.385023 331.097001 -0.113347 0.157495 -44.457942 0.191210 -0.033027 44.458153 -0.000000 0.000000 0.000000 -0.000000 0.000000 0.000000 0.000000 0.000000 0.000000 -0.000000 0.000000 0.000000 -0.000000 0.000000 0.000000 0.763383 1.457155 0.307387 -6.108628 -2.534590 -1.241841 0.000000 0.000000 0.000000 0.000000 0.000000 0.000000 -0.000000 0.000000 0.000000 -0.000000 0.000000 0.000000 2.739237 -11.223727 -2.354799 -10.144232 -0.412225 2.995924 0.000000 0.000000 0.000000 0.000000 0.000000 0.000000 0.191210 -0.033027 44.458153 -0.000000 0.000000 0.000000 -20.237743 -30.353053 -18.944057 0.000000 0.000000 0.000000 0.907328 -0.578786 44.514665 -0.128056 0.891213 -0.051693 -0.000000 0.000000 0.000000 0.000000 0.000000 0.000000
35.561897 81.363017 331.043347 -0.167789 0.219297 -44.611280 0.273458 -0.038276 44.611693 -0.000000 0.000000 0.000000 -0.000000 0.000000 0.000000 0.000000 0.000000 0.000000 -0.000000 0.000000 0.000000 0.157231 -0.925817 -0.218863 0.740639 2.677093 0.573717 -7.325072 -3.007936 -1.530843 0.000000 0.000000 0.000000 0.000000 0.000000 0.000000 -0.000000 0.000000 0.000000 0.272460 0.865242 -0.074193 2.975924 -13.012904 -2.516984 -11.848938 -0.959194 3.684699 0.000000 0.000000 0.000000 0.000000 0.000000 0.000000 0.273458 -0.038276 44.611693 -0.619826 -0.531092 -0.007122 -24.473260 -34.041297 -23.425496 0.000000 0.000000 0.000000 1.020375 -0.707206 44.675888 -0.060855 1.000810 -0.058804 -0.000000 0.000000 0.000000 0.000000 0.000000 0.000000
35.533250 81.340647 330.977064 -0.230515 0.285704 -44.684007 0.364801 -0.041036 44.684712 -0.000000 0.000000 0.000000 -0.319875 0.626383 -0.405002 0.000000 0.000000 0.000000 0.595457 0.487424 -0.266547 -0.344744 -1.508135 0.010012 0.743777 2.970151 0.647721 -8.093722 -3.306776 -1.721690 0.000000 0.000000 0.000000 0.000000 0.000000 0.000000 -0.000000 0.000000 0.000000 0.380253 0.857901 -0.102600 3.212647 -12.706119 -2.595448 -12.976777 -1.721740 4.090316 0.000000 0.000000 0.000000 0.000000 0.000000 0.000000 0.364801 -0.041036 44.684712 -0.712947 -0.548447 -0.021606 -26.965649 -35.873390 -25.797195 0.000000 0.000000 0.000000 1.040675 -0.807755 44.750457 0.059759 1.020325 -0.061271 -0.000000 0.000000 0.000000 0.000000 0.000000 0.000000
35.468500 81.317878 330.845913 -0.345839 0.421943 -44.619348 0.542533 -0.057412 44.620893 -0.000000 0.000000 0.000000 -0.000000 0.000000 0.000000 0.000000 0.000000 0.000000 0.706572 0.554520 -0.312015 -0.356272 -1.626943 0.026822 0.879966 3.277546 0.718139 -7.981355 -3.344419 -1.683595 0.000000 0.000000 0.000000 0.000000 0.000000 0.000000 0.327223 0.807182 0.067786 0.282438 -0.100092 -0.225831 2.928346 -9.230100 -2.235050 -13.087810 -5.218443 3.019499 0.000000 0.000000 0.000000 0.000000 0.000000 0.000000 1.562202 -0.392476 44.858856 -1.392344 0.436834 -0.278552 -19.622472 -29.801709 -18.029276 0.000000 0.000000 0.000000 1.008254 -1.127376 44.691212 0.421419 1.088171 -0.069506 1.556334 1.972563 -1.030672 0.000000 0.000000 0.000000
35.411122 81.270751 330.716436 -0.457105 0.546051 -44.367635 0.708598 -0.070704 44.370250 -0.000000 0.000000 0.000000 -0.000000 0.000000 0.000000 0.000000 0.000000 0.000000 0.779068 0.568088 -0.335630 -0.291157 -1.583860 0.037569 0.816540 3.195177 0.724184 -8.729872 -3.933143 -2.011026 0.000000 0.000000 0.000000 0.000000 0.000000 0.000000 -0.000000 0.000000 0.000000 0.738302 0.784413 -0.196442 3.146531 -7.828982 -2.220739 -14.643270 -4.348268 4.340177 0.000000 0.000000 0.000000 0.000000 0.000000 0.000000 1.960978 -0.427786 44.650066 -1.521219 0.676133 -0.322177 -16.561001 -26.381612 -14.434747 0.000000 0.000000 0.000000 0.884764 -1.044346 44.421725 0.555696 0.818677 -0.053730 -0.000000 0.000000 0.000000 0.000000 0.000000 0.000000
35.396813 81.252535 330.657633 -0.507578 0.578430 -44.309679 0.767260 -0.059330 44.312639 -0.000000 0.000000 0.000000 -0.000000 0.000000 0.000000 0.000000 0.000000 0.000000 0.827687 0.552363 -0.346439 -0.215701 -1.474547 0.045314 0.148072 2.239838 0.572696 -6.736009 -4.123600 -1.956779 0.000000 0.000000 0.000000 0.000000 0.000000 0.000000 0.544454 0.924214 0.097481 0.405519 -0.994607 -0.334652 1.902407 -6.195305 -1.695174 -13.073639 -0.571372 5.061367 0.000000 0.000000 0.000000 0.000000 0.000000 0.000000 2.135652 -0.373533 44.600433 -1.643911 0.854313 -0.356090 -19.111287 -28.656215 -15.814854 0.000000 0.000000 0.000000 0.572758 -0.987814 44.343817 0.788101 0.528039 -0.036587 -1.749737 -2.885644 0.111235 0.000000 0.000000 0.000000
